<svg width="23" height="23" viewBox="0 0 23 23" fill="none" xmlns="http://www.w3.org/2000/svg">
<g id="instagram">
<circle id="Ellipse 4" cx="11.5" cy="11.5" r="11" stroke="white"/>
<path id="Vector" d="M11.5 9.47059C11.0986 9.47059 10.7063 9.58961 10.3725 9.81261C10.0388 10.0356 9.77867 10.3526 9.62507 10.7234C9.47147 11.0942 9.43128 11.5023 9.50958 11.8959C9.58789 12.2896 9.78117 12.6512 10.065 12.935C10.3488 13.2188 10.7104 13.4121 11.1041 13.4904C11.4977 13.5687 11.9058 13.5285 12.2766 13.3749C12.6474 13.2213 12.9644 12.9612 13.1874 12.6275C13.4104 12.2937 13.5294 11.9014 13.5294 11.5C13.5287 10.962 13.3147 10.4462 12.9342 10.0658C12.5538 9.68533 12.038 9.47129 11.5 9.47059ZM11.5 13C11.2033 13 10.9133 12.912 10.6666 12.7472C10.42 12.5824 10.2277 12.3481 10.1142 12.074C10.0006 11.7999 9.97094 11.4983 10.0288 11.2074C10.0867 10.9164 10.2296 10.6491 10.4393 10.4393C10.6491 10.2296 10.9164 10.0867 11.2074 10.0288C11.4983 9.97094 11.7999 10.0006 12.074 10.1142C12.3481 10.2277 12.5824 10.42 12.7472 10.6666C12.912 10.9133 13 11.2033 13 11.5C13 11.8978 12.842 12.2794 12.5607 12.5607C12.2794 12.842 11.8978 13 11.5 13ZM13.6176 7H9.38235C8.75073 7.0007 8.14517 7.25192 7.69855 7.69855C7.25192 8.14517 7.0007 8.75073 7 9.38235V13.6176C7.0007 14.2493 7.25192 14.8548 7.69855 15.3015C8.14517 15.7481 8.75073 15.9993 9.38235 16H13.6176C14.2493 15.9993 14.8548 15.7481 15.3015 15.3015C15.7481 14.8548 15.9993 14.2493 16 13.6176V9.38235C15.9993 8.75073 15.7481 8.14517 15.3015 7.69855C14.8548 7.25192 14.2493 7.0007 13.6176 7ZM15.4706 13.6176C15.4706 14.1091 15.2754 14.5804 14.9279 14.9279C14.5804 15.2754 14.1091 15.4706 13.6176 15.4706H9.38235C8.89092 15.4706 8.41962 15.2754 8.07213 14.9279C7.72463 14.5804 7.52941 14.1091 7.52941 13.6176V9.38235C7.52941 8.89092 7.72463 8.41962 8.07213 8.07213C8.41962 7.72463 8.89092 7.52941 9.38235 7.52941H13.6176C14.1091 7.52941 14.5804 7.72463 14.9279 8.07213C15.2754 8.41962 15.4706 8.89092 15.4706 9.38235V13.6176ZM14.2353 9.20588C14.2353 9.29314 14.2094 9.37844 14.1609 9.45099C14.1125 9.52354 14.0436 9.58008 13.9629 9.61348C13.8823 9.64687 13.7936 9.6556 13.708 9.63858C13.6225 9.62156 13.5439 9.57954 13.4822 9.51784C13.4205 9.45614 13.3784 9.37753 13.3614 9.29195C13.3444 9.20637 13.3531 9.11767 13.3865 9.03705C13.4199 8.95644 13.4765 8.88753 13.549 8.83906C13.6216 8.79058 13.7069 8.76471 13.7941 8.76471C13.9111 8.76471 14.0233 8.81119 14.1061 8.89392C14.1888 8.97666 14.2353 9.08888 14.2353 9.20588Z" fill="white"/>
</g>
</svg>
