<svg width="23" height="23" viewBox="0 0 23 23" fill="none" xmlns="http://www.w3.org/2000/svg">
<g id="youtube">
<circle id="Ellipse 5" cx="11.5" cy="11.5" r="11" stroke="white"/>
<path id="Vector" d="M11 13L13.595 11.5L11 10V13ZM16.78 9.085C16.845 9.32 16.89 9.635 16.92 10.035C16.955 10.435 16.97 10.78 16.97 11.08L17 11.5C17 12.595 16.92 13.4 16.78 13.915C16.655 14.365 16.365 14.655 15.915 14.78C15.68 14.845 15.25 14.89 14.59 14.92C13.94 14.955 13.345 14.97 12.795 14.97L12 15C9.905 15 8.6 14.92 8.085 14.78C7.635 14.655 7.345 14.365 7.22 13.915C7.155 13.68 7.11 13.365 7.08 12.965C7.045 12.565 7.03 12.22 7.03 11.92L7 11.5C7 10.405 7.08 9.6 7.22 9.085C7.345 8.635 7.635 8.345 8.085 8.22C8.32 8.155 8.75 8.11 9.41 8.08C10.06 8.045 10.655 8.03 11.205 8.03L12 8C14.095 8 15.4 8.08 15.915 8.22C16.365 8.345 16.655 8.635 16.78 9.085Z" fill="white"/>
</g>
</svg>
